<svg enable-background="new 0 0 256 256" height="512" viewBox="0 0 256 256" width="512" xmlns="http://www.w3.org/2000/svg"><g id="Layer_60"><g><g><g><path d="m84.328 66.044-6.189 3.2c-.583.301-1.279.287-1.848-.039l-7.677-4.385c-.595-.34-1.325-.34-1.92 0l-7.624 4.357c-.595.34-1.325.34-1.92 0l-7.627-4.357c-.595-.34-1.325-.34-1.92 0l-7.624 4.357c-.595.34-1.326.34-1.921 0l-7.621-4.356c-.595-.34-1.326-.34-1.921 0l-7.667 4.383c-.57.326-1.266.341-1.85.039l-6.181-3.198c-1.288-.666-2.824.269-2.824 1.719v50.275c0 3.115 2.548 5.663 5.663 5.663h65.832c3.115 0 5.663-2.548 5.663-5.663v-50.276c0-1.45-1.536-2.385-2.824-1.719z" fill="#a57453"/></g></g><g><g><path d="m48.5 30.5c-4.627 0-8.377 3.751-8.377 8.377v30.219l7.479-4.275c.595-.34 1.325-.34 1.92 0l7.355 4.202v-30.146c0-4.626-3.75-8.377-8.377-8.377z" fill="#feb872"/></g></g><g><g><path d="m37.324 41.5h-18.402c-1.546 0-2.799 1.253-2.799 2.799v23.456l2.877 1.488c.583.302 1.28.287 1.85-.039l7.667-4.383c.595-.34 1.326-.34 1.921 0l7.621 4.356c.595.34 1.325.34 1.921 0l.144-.083v-24.795c-.001-1.546-1.255-2.799-2.8-2.799z" fill="#70d6f9"/></g></g><g><g><path d="m68 53.5c-5.799 0-10.5 4.701-10.5 10.5 0 1.912.519 3.699 1.412 5.243.052-.024.107-.036.157-.064l7.624-4.357c.595-.34 1.325-.34 1.92 0l7.677 4.385c.215.123.449.186.686.22.961-1.586 1.524-3.439 1.524-5.427 0-5.799-4.701-10.5-10.5-10.5z" fill="#edb311"/></g></g><g><g><path d="m82.074 47.3c-.772-.348-1.578-.514-2.373-.518-.989-.005-1.748-.797-1.677-1.783.175-2.405-1.163-4.739-3.446-5.768-2.284-1.03-4.918-.486-6.604 1.235-.692.707-1.788.662-2.446-.076-.529-.593-1.188-1.088-1.959-1.436-2.558-1.154-5.211-.161-6.69 1.813v28.257l.272.155c.545.311 1.199.323 1.763.064-.895-1.544-1.414-3.331-1.414-5.243 0-5.799 4.701-10.5 10.5-10.5 4.979 0 9.138 3.469 10.219 8.119l5.253-5.059c2.782-2.681 2.349-7.57-1.398-9.26z" fill="#87d147"/></g></g><g><g><path d="m16.123 55.5v12.255l2.877 1.488c.583.302 1.28.287 1.85-.039l7.667-4.383c.595-.34 1.326-.34 1.921 0l7.621 4.356c.595.34 1.325.34 1.921 0l.144-.083v-13.594z" fill="#dae6f1"/></g></g><g><g><path d="m183.587 67.3c-6.239 0-11.777 4.115-13.39 9.968 2.741.77 4.909 3.089 5.339 6.087.359 2.515-.59 4.914-2.33 6.512 2.479 2.743 6.058 4.476 10.024 4.476h15.853c1.545 0 2.797-1.252 2.797-2.797v-24.246z" fill="#b2e26d"/></g></g><g><g><path d="m57.912 159.452c-23.617 0-42.763 19.146-42.763 42.763 0 2.851.285 5.635.817 8.331h83.891c.532-2.695.817-5.479.817-8.331.001-23.617-19.145-42.763-42.762-42.763z" fill="#b2e26d"/></g></g><g><g><path d="m216.205 151.886-21.102-43.86c-.996-2.071-3.092-3.388-5.39-3.388h-6.831l7.565 52.955c.246 1.723-.039 3.48-.818 5.038l-15.483 31.153c-1.461 2.94-4.461 4.8-7.745 4.8h-65.891c.101 1.198.165 2.407.165 3.632 0 2.851-.285 5.635-.817 8.331h74.115c4.741 0 8.796-3.444 9.526-8.129 3.264-20.921 18.734-32.497 28.603-37.863 4.527-2.463 6.337-8.025 4.103-12.669z" fill="#b2e26d"/></g></g><g><g><path d="m142.428 190.282.177-1.465c-2.769.255-5.749.287-8.97.019-25.418-2.118-37.067-40.245-12.709-52.954h-68.42c-2.593 0-5.155.55-7.508 1.638-11.266 5.211-42.937 24.013-42.154 65.176.083 4.365 3.681 7.851 8.046 7.851h5.075c-.532-2.695-.817-5.479-.817-8.331 0-23.617 19.146-42.763 42.763-42.763 22.393 0 40.754 17.216 42.599 39.132h49.49c-5.027-.001-8.069-4.18-7.572-8.303z" fill="#6cadef"/></g></g><g><g><path d="m250.282 175.925c-7.487-5.603-16.775-8.924-26.825-8.924-9.595 0-18.488 3.037-25.79 8.187-6.489 6.432-12.309 15.313-14.168 27.229-.47 3.012-2.317 5.504-4.833 6.905-.047.844-.077 1.692-.077 2.548v.079c.008 4.22 3.52 7.6 7.74 7.6h11.966c3.398 0 6.702-1.119 9.401-3.183l42.591-32.57c2.592-1.983 2.608-5.915-.005-7.871z" fill="#b2e26d"/></g></g><g><g><path d="m175.536 83.355c-.58-4.052-4.333-6.871-8.387-6.29l-32.448 4.635-23.14-31.169c-2.441-3.287-7.084-3.971-10.372-1.533-3.287 2.441-3.974 7.083-1.533 10.372l25.771 34.712c1.41 1.899 3.627 2.994 5.952 2.994.348 0 .699-.025 1.049-.075l36.816-5.259c4.054-.578 6.871-4.334 6.292-8.387z" fill="#b2e26d"/></g></g><g><g><path d="m165.271 183.757h-4.736c-1.268 0-2.251-1.109-2.099-2.367l6.076-50.34c.443-3.67-1.886-7.106-5.459-8.053l-36.012-9.554c-1.871-.496-3.174-2.189-3.174-4.125v-22.726l-20.21-27.222c-1.024-1.38-1.491-2.998-1.453-4.592-.001.058-.009.114-.009.172v61.536c0 3.347 2.295 6.312 5.513 7.165l45.311 12.022-6.591 54.608c-.497 4.124 2.545 8.302 7.572 8.302h15.581c4.17 0 7.536-3.443 7.41-7.641-.121-4.057-3.661-7.185-7.72-7.185z" fill="#87d147"/></g></g><g><g><path d="m210.156 67.3h-8.276v16.093l9.559-6.117c.684-.438 1.097-1.193 1.097-2.004v-5.592c0-1.315-1.066-2.38-2.38-2.38z" fill="#dae6f1"/></g></g><g><g><path d="m183.23 94.343c-2.579 0-4.987-.742-7.042-2.008v12.357c.17-.032.344-.053.523-.053h13.002c.445 0 .878.063 1.301.158v-10.454z" fill="#818182"/></g></g><g><g><path d="m165.271 183.757h-4.736c-1.268 0-2.251-1.109-2.099-2.367l.316-2.616h-14.935l-1.389 11.508c-.497 4.124 2.545 8.302 7.572 8.302h15.581c4.17 0 7.536-3.443 7.41-7.641-.121-4.058-3.661-7.186-7.72-7.186z" fill="#c7d7e5"/></g></g><g><g><path d="m159.053 122.996-36.012-9.554c-1.871-.496-3.174-2.189-3.174-4.125v-1.528l-21.672 2.028v6.67c0 3.347 2.295 6.312 5.513 7.165l45.311 12.022-5.202 43.1h14.935l5.76-47.724c.443-3.671-1.886-7.107-5.459-8.054z" fill="#5290db"/></g></g><g><g><path d="m175.536 83.355c-.58-4.052-4.333-6.871-8.387-6.29l-9.656 1.379 2.777 14.581 8.975-1.282c4.053-.579 6.87-4.335 6.291-8.388z" fill="#c7d7e5"/></g></g><g><g><ellipse cx="110.865" cy="29.445" fill="#f9d0b4" rx="15.357" ry="15.356" transform="matrix(.987 -.16 .16 .987 -3.285 18.139)"/></g></g><g><g><path d="m110.865 14.089c-8.481 0-15.357 6.875-15.357 15.356s6.875 15.356 15.357 15.356c.056 0 .11-.008.165-.008 0-8.043 0-16.44 0-16.44h15.136c-.562-7.969-7.188-14.264-15.301-14.264z" fill="#6cadef"/></g></g><g><g><path d="m190.447 157.594-7.565-52.955h-6.171c-1.563 0-2.831 1.268-2.831 2.831v52.76c0 6.688-2.646 13.116-7.411 17.808-1.901 1.872-4.215 3.756-6.992 5.422.311.182.668.296 1.058.296h4.736c4.06 0 7.599 3.128 7.721 7.186.126 4.198-3.24 7.641-7.41 7.641h.821c3.283 0 6.283-1.859 7.745-4.8l15.483-31.153c.777-1.556 1.062-3.313.816-5.036z" fill="#6cadef"/></g></g><g><g><path d="m103.899 123.702h-57.902c-3.363 0-6.09 2.726-6.09 6.09 0 3.363 2.726 6.09 6.09 6.09h75.723c3.278 0 5.944-2.593 6.077-5.838z" fill="#c18e6b"/></g></g><g><g><path d="m88.251 210.546h-60.017c-.019.439-.033.88-.033 1.324 0 16.592 13.45 30.042 30.042 30.042s30.042-13.45 30.042-30.042c-.001-.444-.015-.885-.034-1.324z" fill="#5b5d60"/></g></g><g><g><path d="m243.187 189.225-35.491 27.14c-2.699 2.064-6.003 3.183-9.401 3.183h-3.885c3.394 12.871 15.11 22.364 29.048 22.364 16.592 0 30.042-13.45 30.042-30.042-.001-9.038-3.998-17.138-10.313-22.645z" fill="#5b5d60"/></g></g><g><g><path d="m73.702 210.546h-30.918c-.037.437-.067.877-.067 1.324 0 8.575 6.951 15.526 15.526 15.526s15.526-6.951 15.526-15.526c0-.447-.03-.887-.067-1.324z" fill="#dae6f1"/></g></g><g><g><path d="m231.175 198.41-22.725 17.378c1.739 6.674 7.789 11.607 15.007 11.607 8.575 0 15.526-6.951 15.526-15.526 0-5.762-3.146-10.78-7.808-13.459z" fill="#dae6f1"/></g></g><g><g><path d="m128.206 234.1h-2.4v-2.3c0-1.8-1.4-3.2-3.2-3.2-1.7 0-3.2 1.4-3.2 3.1v2.4h-2.3c-1.8 0-3.2 1.4-3.2 3.2-.1 1.7 1.3 3.2 3.2 3.2h2.3v2.3c0 1.8 1.4 3.2 3.2 3.2 1.7 0 3.2-1.4 3.2-3.1v-2.4h2.3c1.8 0 3.2-1.4 3.2-3.2 0-1.7-1.4-3.2-3.1-3.2z" fill="#87d147"/></g></g><g><g><path d="m92.506 249.2c-1.878 0-3.4 1.522-3.4 3.4s1.522 3.4 3.4 3.4 3.4-1.522 3.4-3.4-1.522-3.4-3.4-3.4z" fill="#f5c84c"/></g></g><g><g><path d="m226.288 105.2c-3.1-.6-5.6-3-6.2-6.1 0-.1-.3-.1-.3 0-.6 3.1-3.1 5.5-6.2 6.1-.1 0-.1.2 0 .3 3.1.6 5.6 3 6.2 6.1 0 .1.3.1.3 0 .6-3.1 3.1-5.5 6.2-6.1.1-.1.1-.3 0-.3z" fill="#70d6f9"/></g></g><g><g><path d="m92.506 0c-1.878 0-3.4 1.522-3.4 3.4s1.522 3.4 3.4 3.4 3.4-1.522 3.4-3.4-1.522-3.4-3.4-3.4z" fill="#fc657e"/></g></g><g><g><path d="m77.288 15.2c-4.5-.8-8-4.3-8.9-8.7 0-.2-.4-.2-.4 0-.9 4.4-4.4 7.9-8.9 8.7-.2 0-.2.3 0 .4 4.5.8 8 4.3 8.9 8.7 0 .2.4.2.4 0 .9-4.4 4.4-7.9 8.9-8.7.2-.1.2-.4 0-.4z" fill="#f5c84c"/></g></g><g><g><g><g><path d="m178.01 83.002c-.374-2.621-1.747-4.94-3.864-6.529-2.119-1.589-4.733-2.259-7.351-1.883l-30.974 4.425-22.253-29.974c-3.256-4.389-9.479-5.308-13.869-2.049-2.126 1.578-3.51 3.89-3.897 6.509s.27 5.233 1.849 7.359l25.771 34.712c1.861 2.507 4.836 4.004 7.959 4.004.467 0 .938-.033 1.402-.1l36.816-5.259c5.411-.773 9.184-5.804 8.411-11.215zm-5.883 4.351c-.787 1.05-1.937 1.73-3.235 1.916l-36.814 5.258c-1.766.251-3.582-.506-4.643-1.935l-25.771-34.712c-.782-1.054-1.107-2.35-.916-3.647.192-1.298.878-2.443 1.931-3.226.88-.652 1.906-.967 2.925-.967 1.504 0 2.988.686 3.951 1.981l23.14 31.169c.546.736 1.451 1.121 2.36.984l32.448-4.636c1.294-.182 2.592.146 3.642.934s1.73 1.937 1.916 3.236c.185 1.3-.147 2.594-.934 3.645z"/></g></g></g></g><g><g><g><path d="m165.271 181.257h-4.3l6.023-49.907c.589-4.881-2.55-9.511-7.3-10.77l-36.013-9.555c-.773-.206-1.314-.908-1.314-1.709v-22.723c0-.537-.173-1.06-.493-1.49l-20.21-27.223c-.654-.883-.987-1.935-.961-3.042 0-.007.001-.013.001-.018.023-1.377-1.072-2.514-2.449-2.541-.018-.001-.034-.001-.052-.001-1.342 0-2.446 1.063-2.497 2.405-.005.063-.011.208-.011.267v61.536c0 4.49 3.031 8.43 7.371 9.581l43.21 11.465-6.33 52.45c-.34 2.816.544 5.647 2.424 7.769 1.905 2.149 4.615 3.333 7.63 3.333h15.581c2.704 0 5.231-1.069 7.115-3.01 1.883-1.94 2.875-4.5 2.794-7.206-.158-5.3-4.743-9.611-10.219-9.611zm3.836 13.335c-.934.962-2.186 1.492-3.526 1.492h-15.581c-2.005 0-3.222-.897-3.889-1.649-.932-1.052-1.369-2.456-1.2-3.853l6.59-54.608c.149-1.238-.637-2.396-1.841-2.716l-45.311-12.022c-2.117-.563-3.654-2.56-3.654-4.749l-.002-51.526 16.674 22.459v21.897c0 3.065 2.069 5.756 5.032 6.541l36.013 9.556c2.354.624 3.91 2.918 3.617 5.337l-6.074 50.339c-.159 1.31.252 2.627 1.127 3.614s2.134 1.554 3.453 1.554h4.735c2.801 0 5.144 2.136 5.222 4.761.04 1.342-.451 2.612-1.385 3.573z"/></g></g></g><g><g><g><g><path d="m165.271 181.257h-4.3l.264-2.185c.085-.71-.138-1.422-.612-1.957s-1.155-.842-1.87-.842h-14.935c-1.265 0-2.33.944-2.482 2.2l-1.389 11.509c-.34 2.816.544 5.647 2.424 7.769 1.905 2.149 4.615 3.333 7.63 3.333h15.581c2.705 0 5.231-1.069 7.115-3.01 1.883-1.94 2.875-4.5 2.794-7.206-.159-5.3-4.744-9.611-10.22-9.611zm3.837 13.335c-.934.962-2.187 1.492-3.527 1.492h-15.581c-2.005 0-3.222-.897-3.889-1.649-.932-1.052-1.369-2.456-1.2-3.853l1.123-9.309h9.902c-.101 1.248.312 2.489 1.146 3.43.875.987 2.134 1.554 3.453 1.554h4.735c2.801 0 5.144 2.136 5.222 4.761.04 1.343-.451 2.613-1.384 3.574z"/></g></g></g></g><g><g><g><path d="m159.694 120.58-36.013-9.556c-.773-.205-1.314-.907-1.314-1.708v-1.528c0-.703-.297-1.375-.816-1.849-.521-.473-1.211-.703-1.917-.641l-21.672 2.028c-1.284.12-2.267 1.199-2.267 2.489v6.67c0 4.49 3.031 8.43 7.371 9.581l43.21 11.465-4.941 40.941c-.085.71.138 1.423.611 1.958.475.535 1.156.842 1.871.842h14.935c1.265 0 2.33-.944 2.482-2.2l5.76-47.724c.589-4.878-2.55-9.508-7.3-10.768zm2.335 10.17-5.494 45.523h-9.897l4.863-40.3c.149-1.238-.637-2.396-1.841-2.716l-45.311-12.022c-2.117-.563-3.654-2.56-3.654-4.749v-4.393l16.78-1.571c.461 2.545 2.357 4.655 4.924 5.335l36.012 9.555c.001 0 .001 0 .001.001 2.355.624 3.91 2.918 3.617 5.337z"/></g></g></g><g><g><g><path d="m178.01 83.002c-.374-2.621-1.747-4.94-3.864-6.529-2.119-1.59-4.732-2.261-7.351-1.883l-9.656 1.38c-.677.097-1.283.466-1.681 1.021s-.55 1.25-.422 1.921l2.777 14.58c.228 1.193 1.271 2.032 2.453 2.032.118 0 .236-.008.356-.025l8.976-1.281c5.412-.774 9.185-5.805 8.412-11.216zm-9.118 6.267-6.613.943-1.84-9.663 7.063-1.01h.001c1.294-.182 2.592.146 3.642.934s1.73 1.937 1.916 3.236c.382 2.683-1.488 5.176-4.169 5.56z"/></g></g></g><g><g><g><path d="m110.865 11.589c-9.846 0-17.856 8.011-17.856 17.856s8.011 17.856 17.856 17.856 17.856-8.011 17.856-17.856-8.01-17.856-17.856-17.856zm0 30.713c-7.089 0-12.856-5.768-12.856-12.856s5.768-12.856 12.856-12.856 12.856 5.768 12.856 12.856-5.767 12.856-12.856 12.856z"/></g></g></g><g><g><path d="m132.41 25.853h-21.38c-1.381 0-2.5 1.119-2.5 2.5v15.754c0 1.381 1.119 2.5 2.5 2.5s2.5-1.119 2.5-2.5v-13.254h18.88c1.381 0 2.5-1.119 2.5-2.5s-1.119-2.5-2.5-2.5z"/></g></g><g><g><g><path d="m110.865 11.589c-9.846 0-17.856 8.011-17.856 17.856s8.011 17.856 17.856 17.856c.094 0 .186-.005.209-.009 1.363-.024 2.456-1.137 2.456-2.5v-13.94h12.636c.693 0 1.356-.288 1.829-.796.473-.507.714-1.188.665-1.88-.656-9.301-8.472-16.587-17.795-16.587zm.165 14.264c-1.381 0-2.5 1.119-2.5 2.5v13.736c-5.979-1.101-10.521-6.352-10.521-12.644 0-7.089 5.768-12.856 12.856-12.856 5.785 0 10.764 3.898 12.329 9.264z"/></g></g></g><g><g><g><path d="m210.156 64.8h-8.276c-1.381 0-2.5 1.119-2.5 2.5v16.094c0 .914.498 1.755 1.3 2.193.375.205.788.307 1.2.307.47 0 .938-.132 1.348-.395l9.559-6.118c1.409-.901 2.25-2.438 2.25-4.109v-5.592c-.001-2.691-2.19-4.88-4.881-4.88zm-.12 10.405-5.656 3.62v-9.025h5.656z"/></g></g></g><g><g><g><path d="m201.88 64.8h-18.293c-7.388 0-13.885 4.854-15.8 11.804-.365 1.326.409 2.698 1.733 3.07 1.875.527 3.265 2.111 3.54 4.035.229 1.604-.35 3.217-1.547 4.317-1.011.929-1.084 2.499-.163 3.518 3.044 3.367 7.374 5.299 11.879 5.299h15.854c2.921 0 5.297-2.376 5.297-5.297v-24.246c0-1.381-1.119-2.5-2.5-2.5zm-2.5 26.746c0 .164-.133.297-.297.297h-15.854c-2.389 0-4.707-.793-6.605-2.222 1.21-1.954 1.719-4.292 1.386-6.619-.424-2.966-2.158-5.53-4.638-7.05 1.873-3.705 5.813-6.152 10.215-6.152h15.793z"/></g></g></g><g><g><path d="m187.149 44.492h-12.668c-1.381 0-2.5 1.119-2.5 2.5s1.119 2.5 2.5 2.5h10.168v16.501c0 1.381 1.119 2.5 2.5 2.5s2.5-1.119 2.5-2.5v-19.001c0-1.381-1.119-2.5-2.5-2.5z"/></g></g><g><g><path d="m173.849 37.776c-1.381 0-2.5 1.119-2.5 2.5v13.892c0 1.381 1.119 2.5 2.5 2.5s2.5-1.119 2.5-2.5v-13.892c0-1.38-1.12-2.5-2.5-2.5z"/></g></g><g><g><g><path d="m57.912 156.952c-24.958 0-45.264 20.305-45.264 45.263 0 2.943.291 5.909.864 8.815.231 1.171 1.259 2.016 2.453 2.016h83.892c1.194 0 2.222-.845 2.453-2.016.573-2.906.864-5.872.864-8.815.001-24.958-20.304-45.263-45.262-45.263zm39.838 51.094h-79.677c-.282-1.936-.425-3.889-.425-5.831 0-22.201 18.063-40.263 40.264-40.263s40.263 18.062 40.263 40.263c0 1.942-.143 3.895-.425 5.831z"/></g></g></g><g><g><g><g><path d="m218.458 150.803-21.103-43.858c-1.403-2.92-4.403-4.806-7.643-4.806h-6.831c-.725 0-1.414.314-1.889.862-.475.547-.688 1.273-.586 1.991l7.564 52.956c.176 1.225-.024 2.457-.581 3.57l-15.483 31.153c-1.045 2.104-3.155 3.412-5.505 3.412h-65.892c-.699 0-1.367.293-1.84.808-.474.515-.71 1.204-.651 1.901.104 1.245.155 2.364.155 3.423 0 2.618-.259 5.258-.771 7.846-.145.733.047 1.494.521 2.071.475.578 1.184.913 1.932.913h74.115c6.025 0 11.071-4.309 11.996-10.243 3.144-20.148 18.471-31.236 27.327-36.053 5.707-3.1 7.975-10.104 5.165-15.946zm-7.551 11.554c-9.667 5.257-26.403 17.401-29.878 39.675-.544 3.484-3.512 6.014-7.057 6.014h-71.176c.251-1.938.378-3.889.378-5.83 0-.371-.006-.748-.017-1.132h63.244c4.262 0 8.087-2.371 9.982-6.188l15.479-31.146c1.012-2.021 1.378-4.273 1.057-6.51l-7.156-50.102h3.948c1.329 0 2.561.774 3.137 1.973l21.103 43.859c1.654 3.437.318 7.56-3.044 9.387z"/></g></g></g></g><g><g><g><path d="m150 196.084c-2.005 0-3.222-.897-3.889-1.649-.932-1.052-1.369-2.456-1.2-3.853 0 0 0 0 0-.001l.177-1.466c.09-.749-.163-1.5-.689-2.041-.527-.543-1.267-.813-2.022-.747-2.755.252-5.626.258-8.533.017-13.074-1.09-21.212-12.419-23.24-22.484-2.258-11.202 2.034-20.833 11.48-25.761 1.021-.533 1.546-1.693 1.271-2.813-.273-1.118-1.276-1.904-2.428-1.904h-68.421c-2.996 0-5.875.629-8.558 1.869-10.438 4.829-44.431 23.968-43.603 67.492.108 5.681 4.839 10.303 10.546 10.303h5.075c.748 0 1.457-.335 1.932-.913.475-.577.666-1.338.521-2.071-.511-2.588-.77-5.228-.77-7.846 0-22.201 18.063-40.264 40.264-40.264 20.75 0 38.367 16.183 40.107 36.842.109 1.295 1.191 2.29 2.491 2.29h49.489c1.381 0 2.5-1.119 2.5-2.5s-1.119-2.5-2.5-2.5zm-47.251 0c-3.018-22.123-22.28-39.132-44.837-39.132-24.958 0-45.264 20.306-45.264 45.264 0 1.941.127 3.893.378 5.83h-2.136c-3.002 0-5.49-2.422-5.546-5.398-.771-40.496 30.96-58.352 40.702-62.858 2.02-.934 4.193-1.407 6.459-1.407h60.677c-6.748 6.514-9.575 16.075-7.481 26.465 2.916 14.474 14.317 25.362 27.726 26.479 2.177.182 4.339.235 6.453.165.053 1.615.499 3.193 1.296 4.593h-38.427z"/></g></g></g><g><g><g><path d="m192.921 157.239-7.564-52.954c-.176-1.231-1.23-2.146-2.475-2.146h-6.171c-2.939 0-5.331 2.392-5.331 5.331v52.761c0 6.014-2.43 11.854-6.666 16.026-1.973 1.944-4.168 3.646-6.523 5.06-.757.454-1.219 1.273-1.214 2.156s.475 1.697 1.235 2.145c.715.418 1.518.64 2.323.64h4.735c2.801 0 5.144 2.136 5.222 4.761.04 1.344-.451 2.613-1.384 3.574-.934.962-2.187 1.492-3.527 1.492-1.381 0-2.5 1.119-2.5 2.5s1.119 2.5 2.5 2.5h.821c4.262 0 8.087-2.371 9.982-6.188l15.479-31.146c1.013-2.022 1.379-4.274 1.058-6.512zm-5.53 4.28-12.763 25.68c-1.425-3.108-4.464-5.399-8.038-5.857.558-.491 1.103-.999 1.633-1.521 5.185-5.105 8.157-12.245 8.157-19.589v-52.762c0-.183.148-.331.331-.331h4.003l7.258 50.809v.001c.175 1.224-.025 2.456-.581 3.57z"/></g></g></g><g><g><g><path d="m128.439 127.627-23.898-6.341c-.21-.056-.425-.084-.642-.084h-57.902c-4.736 0-8.59 3.854-8.59 8.59s3.854 8.59 8.59 8.59h75.724c4.619 0 8.386-3.618 8.575-8.236.048-1.171-.725-2.219-1.857-2.519zm-6.718 5.755h-75.724c-1.979 0-3.59-1.61-3.59-3.59s1.61-3.59 3.59-3.59h57.576l21.118 5.604c-.643.954-1.734 1.576-2.97 1.576z"/></g></g></g><g><g><g><path d="m90.748 210.435c-.059-1.336-1.159-2.389-2.497-2.389h-60.017c-1.338 0-2.438 1.053-2.497 2.389-.021.477-.036.954-.036 1.435 0 17.943 14.599 32.542 32.542 32.542s32.541-14.599 32.541-32.542c0-.481-.014-.959-.036-1.435zm-32.505 28.976c-14.793 0-26.899-11.722-27.518-26.365h55.035c-.618 14.643-12.725 26.365-27.517 26.365z"/></g></g></g><g><g><g><path d="m76.193 210.34c-.106-1.296-1.19-2.294-2.491-2.294h-30.918c-1.299 0-2.381.994-2.491 2.289-.043.507-.076 1.017-.076 1.534 0 9.939 8.087 18.026 18.026 18.026s18.025-8.087 18.025-18.026c.001-.515-.033-1.023-.075-1.529zm-17.95 14.556c-6.786 0-12.377-5.217-12.974-11.85h25.946c-.596 6.633-6.187 11.85-12.972 11.85z"/></g></g></g><g><g><g><path d="m251.78 173.924c-8.239-6.164-18.033-9.423-28.323-9.423-9.797 0-19.213 2.989-27.23 8.644-.114.08-.221.17-.319.268-8.175 8.104-13.181 17.733-14.878 28.619-.338 2.167-1.643 4.027-3.579 5.105-.749.417-1.231 1.188-1.28 2.043-.055.964-.081 1.844-.081 2.773.011 5.566 4.604 10.095 10.239 10.095h11.966c3.925 0 7.803-1.313 10.92-3.696l42.593-32.57c1.875-1.435 2.942-3.613 2.93-5.977-.014-2.341-1.092-4.485-2.958-5.881zm-3.011 7.886-42.592 32.57c-2.25 1.721-5.05 2.668-7.883 2.668h-11.966c-2.884 0-5.234-2.29-5.239-5.179 0-.37.006-.749.018-1.142 2.615-1.886 4.36-4.706 4.862-7.926 1.52-9.742 5.997-18.385 13.31-25.691 7.133-4.979 15.489-7.609 24.179-7.609 9.202 0 17.96 2.914 25.327 8.427.602.449.948 1.144.952 1.903.004.784-.349 1.505-.968 1.979z"/></g></g></g><g><g><g><path d="m244.83 187.341c-.896-.782-2.219-.822-3.162-.103l-35.491 27.142c-2.25 1.721-5.05 2.668-7.883 2.668h-3.884c-.775 0-1.507.359-1.98.974-.473.614-.635 1.414-.437 2.163 3.759 14.265 16.698 24.227 31.464 24.227 17.943 0 32.542-14.599 32.542-32.542 0-9.398-4.071-18.339-11.169-24.529zm-21.373 52.07c-11.384 0-21.483-6.994-25.598-17.363h.435c3.925 0 7.803-1.313 10.92-3.696l33.809-25.854c5.093 5.145 7.977 12.097 7.977 19.372-.001 15.186-12.356 27.541-27.543 27.541z"/></g></g></g><g><g><g><path d="m232.421 196.243c-.874-.504-1.964-.433-2.765.181l-22.725 17.378c-.8.611-1.154 1.643-.9 2.616 2.066 7.936 9.232 13.478 17.426 13.478 9.939 0 18.026-8.087 18.026-18.026 0-6.427-3.472-12.414-9.062-15.627zm-8.964 28.653c-5.372 0-10.133-3.3-12.082-8.196l19.909-15.226c3.241 2.445 5.199 6.298 5.199 10.396 0 7.182-5.843 13.026-13.026 13.026z"/></g></g></g><g><g><g><path d="m191.014 91.843h-7.784c-2.013 0-3.994-.565-5.73-1.636-.772-.477-1.74-.497-2.53-.055-.791.441-1.281 1.276-1.281 2.183v12.356c0 .742.365 1.44.936 1.915.57.476 1.36.668 2.088.532h13.002c.214 0 .461.032.754.098.182.041.364.061.547.061.563 0 1.115-.19 1.563-.549.593-.475.938-1.192.938-1.951v-10.454c-.003-1.381-1.122-2.5-2.503-2.5zm-2.5 10.296h-9.826v-5.963c1.47.44 2.999.667 4.542.667h5.284z"/></g></g></g><g><g><path d="m72.398 144.033h-28.731c-2.929 0-5.633-1.59-7.058-4.148l-9.685-17.398c-.441-.793-1.277-1.284-2.185-1.284h-22.239c-1.381 0-2.5 1.119-2.5 2.5s1.119 2.5 2.5 2.5h20.771l8.97 16.114c2.307 4.144 6.686 6.717 11.427 6.717h28.731c1.381 0 2.5-1.119 2.5-2.5s-1.12-2.501-2.501-2.501z"/></g></g><g><g><g><path d="m87.524 63.976c-1.332-.811-2.956-.869-4.345-.152l-5.915 3.059-7.411-4.231c-1.357-.775-3.043-.775-4.4 0l-7.344 4.197-7.348-4.198c-1.357-.773-3.043-.772-4.4.001l-7.343 4.197-7.342-4.197c-1.357-.775-3.044-.776-4.401.001l-7.399 4.23-5.909-3.057c-1.386-.716-3.01-.66-4.344.151-1.333.812-2.129 2.228-2.129 3.788v50.274c0 4.501 3.662 8.163 8.163 8.163h65.832c4.501 0 8.163-3.662 8.163-8.163v-50.275c0-1.561-.796-2.977-2.128-3.788zm-2.872 54.063c0 1.744-1.419 3.163-3.163 3.163h-65.832c-1.744 0-3.163-1.419-3.163-3.163v-49.347l5.356 2.771c1.34.692 2.923.661 4.24-.089l7.386-4.223 7.341 4.197c1.358.776 3.045.774 4.401 0l7.344-4.198 7.347 4.198c1.357.775 3.043.775 4.4 0l7.344-4.197 7.395 4.222c1.313.752 2.897.785 4.239.091l5.365-2.774z"/></g></g></g><g><g><g><path d="m48.5 28c-5.998 0-10.877 4.879-10.877 10.877v30.219c0 .892.475 1.715 1.245 2.162.388.226.821.338 1.255.338.428 0 .856-.109 1.24-.329l7.199-4.115 7.074 4.043c.775.443 1.726.44 2.495-.009.771-.447 1.245-1.271 1.245-2.162v-30.147c.001-5.998-4.878-10.877-10.876-10.877zm5.877 36.716-3.614-2.065c-1.357-.775-3.043-.774-4.4-.001 0 .001-.001.001-.001.001l-3.738 2.137v-25.91c0-3.24 2.637-5.877 5.877-5.877s5.877 2.637 5.877 5.877v25.838z"/></g></g></g><g><g><g><path d="m37.323 39h-18.401c-2.922 0-5.299 2.377-5.299 5.299v23.456c0 .935.521 1.791 1.352 2.221l2.877 1.488c.643.332 1.34.498 2.038.498.758 0 1.516-.196 2.201-.587l7.386-4.223 7.338 4.194c1.356.777 3.043.779 4.409 0l.145-.083c.776-.446 1.255-1.272 1.255-2.168v-24.796c-.001-2.922-2.379-5.299-5.301-5.299zm.3 27.05-5.944-3.397c-1.357-.777-3.047-.777-4.404 0l-7.398 4.229-1.253-.648v-21.935c0-.165.134-.299.299-.299h18.401c.165 0 .3.134.3.299v21.751z"/></g></g></g><g><g><g><path d="m68 51c-7.168 0-13 5.832-13 13 0 2.271.604 4.517 1.748 6.494.628 1.089 1.961 1.539 3.118 1.06.138-.052.325-.138.438-.202.002-.001.004-.001.005-.002l7.344-4.197 7.391 4.22c.471.271.985.443 1.576.528.119.017.238.025.357.025.864 0 1.68-.449 2.137-1.204 1.234-2.034 1.886-4.359 1.886-6.722 0-7.168-5.832-13-13-13zm7.739 15.011-5.886-3.36c-.678-.388-1.438-.581-2.199-.581s-1.522.193-2.201.581l-5.275 3.015c-.117-.547-.178-1.105-.178-1.666 0-4.411 3.589-8 8-8s8 3.589 8 8c0 .681-.089 1.355-.261 2.011z"/></g></g></g><g><g><g><path d="m87.647 50.889c-.455-2.631-2.112-4.77-4.545-5.867-.001-.001-.002-.001-.002-.001-.824-.371-1.685-.604-2.565-.694-.098-3.16-2.001-6.054-4.93-7.375-2.929-1.32-6.359-.83-8.79 1.188-.654-.603-1.398-1.094-2.221-1.465-3.418-1.542-7.415-.476-9.718 2.593-.324.433-.5.959-.5 1.5v28.257c0 .898.481 1.728 1.262 2.172l.27.153c.669.383 1.421.575 2.178.575.635 0 1.273-.136 1.868-.408.64-.293 1.126-.843 1.34-1.514s.135-1.4-.218-2.01c-.704-1.22-1.076-2.599-1.076-3.993 0-4.411 3.589-8 8-8 3.737 0 6.938 2.543 7.783 6.185.204.877.862 1.576 1.726 1.832.86.255 1.796.027 2.444-.597l5.253-5.06c2.005-1.931 2.917-4.724 2.441-7.471zm-5.91 3.87-2.609 2.514c-2.295-3.826-6.453-6.273-11.128-6.273-3.306 0-6.327 1.24-8.623 3.279v-12.549c.759-.661 1.894-1.071 3.162-.499.432.195.81.473 1.122.822.778.872 1.884 1.388 3.034 1.415 1.104.026 2.255-.429 3.064-1.254.98-1.001 2.503-1.288 3.791-.705 1.285.579 2.081 1.909 1.979 3.309-.085 1.167.302 2.277 1.087 3.126.782.845 1.901 1.332 3.074 1.338.465.002.921.102 1.354.296 1.228.555 1.576 1.594 1.675 2.163.191 1.095-.186 2.251-.982 3.018z"/></g></g></g><g><g><g><path d="m40.123 53h-24c-1.381 0-2.5 1.119-2.5 2.5v12.255c0 .935.521 1.791 1.352 2.221l2.876 1.488c.643.332 1.341.498 2.039.498.758 0 1.516-.196 2.201-.587l7.386-4.223 7.338 4.194c1.356.777 3.043.779 4.409 0l.145-.083c.776-.446 1.255-1.272 1.255-2.168v-13.595c-.001-1.381-1.12-2.5-2.501-2.5zm-2.5 13.05-5.944-3.397c-1.357-.777-3.047-.777-4.404 0l-7.398 4.229-1.253-.648v-8.234h19v8.05z"/></g></g></g></g></g></svg>